Coordinates
version=1
nRows=17
nColumns=34
inDegrees=yes

Units are S.I. units (second, meters, Newtons, ...)
Angles are in degrees.

endheader
time	pelvis_tilt	pelvis_list	pelvis_rotation	pelvis_tx	pelvis_ty	pelvis_tz	hip_flexion_r	hip_adduction_r	hip_rotation_r	knee_angle_r	ankle_angle_r	subtalar_angle_r	mtp_angle_r	hip_flexion_l	hip_adduction_l	hip_rotation_l	knee_angle_l	socket_flexion	socket_adduction	socket_rotation	socket_tx	socket_ty	socket_tz	pros_ankle_rx	pros_ankle_ry	pros_ankle_rz	pros_ankle_tx	pros_ankle_ty	pros_ankle_tz	foot_flex	lumbar_extension	lumbar_bending	lumbar_rotation
      0.90416667	     -0.03287740	     -8.12512050	      1.47966898	      0.46410655	      1.04313417	      0.36821534	     10.93089724	     12.57953082	     -5.84581454	    -20.38070749	      8.23823538	     11.28491265	     13.87068721	     16.52426531	    -15.89173926	     -4.01962683	    -68.75304680	     -4.17160164	      0.00000000	      0.00000000	      0.00000000	     -0.02093325	      0.00000000	      0.00000000	      0.00000000	      0.00000000	      0.00000000	      0.00000000	      0.00000000	     -1.52248410	     -9.18298269	      3.97352239	    -22.51085318
      0.90833333	      0.15428906	     -7.84388953	      1.49127677	      0.46928667	      1.04481742	      0.36796700	     10.30866166	     12.16300557	     -6.26775949	    -20.22305850	      8.19892522	     12.25834975	     15.14072392	     16.54191986	    -15.41096817	     -3.88516139	    -67.71499039	     -3.83288993	      0.00000000	      0.00000000	      0.00000000	     -0.02185696	      0.00000000	      0.00000000	      0.00000000	      0.00000000	      0.00000000	      0.00000000	      0.00000000	     -1.55120650	     -9.44179978	      3.66812758	    -22.55013661
      0.91250000	      0.12997460	     -7.75240921	      1.45229704	      0.47409603	      1.04595584	      0.36787017	      9.86823362	     12.06392455	     -6.21219555	    -19.93009583	      8.17182737	     12.37808515	     15.20248862	     17.12987934	    -15.17912758	     -3.66454754	    -67.31826976	     -3.83647288	      0.00000000	      0.00000000	      0.00000000	     -0.02120384	      0.00000000	      0.00000000	      0.00000000	      0.00000000	      0.00000000	      0.00000000	      0.00000000	     -1.53580809	     -9.39522740	      3.57455907	    -22.44738895
      0.91666667	      0.06354044	     -7.63098576	      1.44289681	      0.47918846	      1.04710170	      0.36764317	      9.45047911	     11.88925520	     -6.32622755	    -19.60165526	      7.95771950	     12.60290411	     15.36222097	     17.60250237	    -14.87242047	     -3.43458207	    -66.60545032	     -3.70062994	      0.00000000	      0.00000000	      0.00000000	     -0.02127480	      0.00000000	      0.00000000	      0.00000000	      0.00000000	      0.00000000	      0.00000000	      0.00000000	     -1.53257477	     -9.24893349	      3.44679149	    -22.36705667
      0.92083333	      0.03959309	     -7.54860922	      1.38144059	      0.48381197	      1.04819092	      0.36757615	      9.05080498	     11.80338395	     -6.23342708	    -19.37596820	      7.96622147	     12.78439852	     15.43249795	     18.16680186	    -14.64628538	     -3.22912053	    -66.12236335	     -3.69108612	      0.00000000	      0.00000000	      0.00000000	     -0.02064567	      0.00000000	      0.00000000	      0.00000000	      0.00000000	      0.00000000	      0.00000000	      0.00000000	     -1.55153055	     -9.30384698	      3.35757971	    -22.29021191
      0.92500000	     -0.00726092	     -7.45622477	      1.33145894	      0.48865382	      1.04929234	      0.36747061	      8.63872760	     11.68909042	     -6.23481521	    -19.08179191	      7.88666051	     12.99877564	     15.51092937	     18.67366880	    -14.38994274	     -3.01521816	    -65.50181647	     -3.65258844	      0.00000000	      0.00000000	      0.00000000	     -0.02022393	      0.00000000	      0.00000000	      0.00000000	      0.00000000	      0.00000000	      0.00000000	      0.00000000	     -1.55181713	     -9.26418692	      3.25106908	    -22.18728574
      0.92916667	      0.29078592	     -7.13138646	      1.27539875	      0.49407540	      1.05129362	      0.36735810	      7.82453182	     11.22652986	     -6.67239582	    -18.80588579	      7.63776199	     14.01689801	     17.10843925	     18.28033638	    -13.88296337	     -3.04832972	    -63.90916647	     -3.16084970	      0.00000000	      0.00000000	      0.00000000	     -0.02164941	      0.00000000	      0.00000000	      0.00000000	      0.00000000	      0.00000000	      0.00000000	      0.00000000	     -1.54312779	     -9.53900473	      2.86238389	    -22.10425719
      0.93333333	      0.25815450	     -7.10060807	      1.13140163	      0.49872211	      1.05219400	      0.36735301	      7.48985012	     11.17136157	     -6.63902412	    -18.69063268	      7.64470443	     14.08495827	     17.12140959	     18.82449708	    -13.74708349	     -2.93906080	    -63.48186045	     -3.31189146	      0.00000000	      0.00000000	      0.00000000	     -0.02077951	      0.00000000	      0.00000000	      0.00000000	      0.00000000	      0.00000000	      0.00000000	      0.00000000	     -1.54163259	     -9.60951059	      2.86093877	    -22.05255745
      0.93750000	      0.10034123	     -6.94294629	      1.08295935	      0.50386347	      1.05335285	      0.36724460	      7.10856623	     10.97484046	     -6.67294641	    -18.23322884	      7.27590278	     14.44224946	     17.32845108	     19.17695661	    -13.39041508	     -2.77259771	    -62.23698203	     -2.96198525	      0.00000000	      0.00000000	      0.00000000	     -0.02127909	      0.00000000	      0.00000000	      0.00000000	      0.00000000	      0.00000000	      0.00000000	      0.00000000	     -1.55172662	     -9.35783536	      2.70244392	    -21.90269305
      0.94166667	      0.08359927	     -6.90650821	      1.01730633	      0.50848994	      1.05434585	      0.36718062	      6.69281911	     10.93693693	     -6.58033468	    -17.98096458	      7.30473185	     14.60552949	     17.38033777	     19.69547137	    -13.21255784	     -2.56158559	    -61.68912136	     -3.05367519	      0.00000000	      0.00000000	      0.00000000	     -0.02029942	      0.00000000	      0.00000000	      0.00000000	      0.00000000	      0.00000000	      0.00000000	      0.00000000	     -1.53599158	     -9.36477732	      2.60653732	    -21.78140770
      0.94583333	      0.00606615	     -6.87015394	      0.92421866	      0.51320766	      1.05527946	      0.36714451	      6.33028069	     10.88204150	     -6.54957487	    -17.69889552	      7.24342858	     14.77497980	     17.41638791	     20.21852774	    -13.04490662	     -2.41189805	    -61.02937736	     -3.10644254	      0.00000000	      0.00000000	      0.00000000	     -0.01948962	      0.00000000	      0.00000000	      0.00000000	      0.00000000	      0.00000000	      0.00000000	      0.00000000	     -1.54653597	     -9.37689054	      2.58647631	    -21.66641994
      0.95000000	      0.01202528	     -6.88203333	      0.76197379	      0.51781288	      1.05609049	      0.36716070	      5.99991874	     10.86088345	     -6.54314565	    -17.67879409	      7.20567566	     14.84393270	     17.42911530	     20.66065697	    -12.95656319	     -2.30251136	    -60.51542089	     -3.33024726	      0.00000000	      0.00000000	      0.00000000	     -0.01862377	      0.00000000	      0.00000000	      0.00000000	      0.00000000	      0.00000000	      0.00000000	      0.00000000	     -1.50754512	     -9.38744973	      2.57471345	    -21.62032268
      0.95416667	      0.17208590	     -6.48398221	      0.58330353	      0.52347958	      1.05817337	      0.36741660	      5.16123989	     10.41012729	     -6.53940499	    -17.08437681	      6.80652108	     15.63340475	     18.13827368	     19.98675550	    -12.39847588	     -2.48710886	    -57.97751996	     -2.40518498	      0.00000000	      0.00000000	      0.00000000	     -0.02093564	      0.00000000	      0.00000000	      0.00000000	      0.00000000	      0.00000000	      0.00000000	      0.00000000	     -1.50474082	     -9.39733715	      2.07628696	    -21.23133849
      0.95833333	      0.17916034	     -6.50955636	      0.41530526	      0.52796381	      1.05891185	      0.36746146	      4.85132597	     10.39812577	     -6.53526520	    -17.08505759	      6.80037306	     15.67724527	     18.14908501	     20.46130646	    -12.33949862	     -2.39390256	    -57.52299837	     -2.69295131	      0.00000000	      0.00000000	      0.00000000	     -0.01974342	      0.00000000	      0.00000000	      0.00000000	      0.00000000	      0.00000000	      0.00000000	      0.00000000	     -1.45813152	     -9.46588929	      2.07974913	    -21.20199524
      0.96250000	      0.00374734	     -6.52404297	      0.42586819	      0.53276228	      1.05971952	      0.36727642	      4.46279840	     10.42954710	     -6.40762227	    -16.51584311	      6.61495643	     15.99726429	     18.20626191	     21.00839931	    -12.16637120	     -2.07537787	    -56.58026586	     -2.63484164	      0.00000000	      0.00000000	      0.00000000	     -0.01909110	      0.00000000	      0.00000000	      0.00000000	      0.00000000	      0.00000000	      0.00000000	      0.00000000	     -1.45120165	     -9.33029279	      2.10138336	    -20.99257831
      0.96666667	      0.00165436	     -6.54892463	      0.24351896	      0.53729411	      1.06043262	      0.36733806	      4.15976115	     10.40838659	     -6.43334093	    -16.51195893	      6.58552554	     16.03590028	     18.21707926	     21.45005071	    -12.11542191	     -2.01700627	    -56.05766315	     -2.92613476	      0.00000000	      0.00000000	      0.00000000	     -0.01786167	      0.00000000	      0.00000000	      0.00000000	      0.00000000	      0.00000000	      0.00000000	      0.00000000	     -1.40832212	     -9.36602294	      2.11447952	    -20.96280269
      0.97083333	      0.17104727	     -6.21222892	      0.00497973	      0.54295856	      1.06242871	      0.36773938	      3.27143084	     10.04364469	     -6.29606112	    -15.80471540	      6.02330211	     16.64441879	     19.17782949	     20.65068505	    -11.66154779	     -2.25204906	    -53.26922591	     -1.93562135	      0.00000000	      0.00000000	      0.00000000	     -0.02011050	      0.00000000	      0.00000000	      0.00000000	      0.00000000	      0.00000000	      0.00000000	      0.00000000	     -1.39081402	     -9.41449069	      1.72508934	    -20.48075346
